<?xml version="1.0" encoding="UTF-8"?>
<svg xmlns="http://www.w3.org/2000/svg" xmlns:xlink="http://www.w3.org/1999/xlink" width="276.67357pt" height="276.150505pt" viewBox="0 0 276.67357 276.150505" version="1.1">
<defs>
<clipPath id="clip1">
  <path d="M 0 0 L 276.671875 0 L 276.671875 276.152344 L 0 276.152344 Z M 0 0 "/>
</clipPath>
<clipPath id="clip2">
  <path d="M 0 0 L 276.671875 0 L 276.671875 276.152344 L 0 276.152344 Z M 0 0 "/>
</clipPath>
</defs>
<g id="surface1">
<g clip-path="url(#clip1)" clip-rule="nonzero">
<path style="fill:none;stroke-width:3;stroke-linecap:butt;stroke-linejoin:miter;stroke:rgb(0%,0%,0%);stroke-opacity:1;stroke-dasharray:3,3;stroke-miterlimit:4;" d="M -0.001645 0.00019375 L 281.998355 0.00019375 L 281.998355 282.000194 L -0.001645 282.000194 Z M -0.001645 0.00019375 " transform="matrix(1,0,0,1,-2.29523,-3.4416)"/>
</g>
<path style="fill-rule:nonzero;fill:rgb(100%,100%,100%);fill-opacity:1;stroke-width:1;stroke-linecap:butt;stroke-linejoin:miter;stroke:rgb(0%,0%,0%);stroke-opacity:1;stroke-miterlimit:4;" d="M 4.998355 28.000194 L 276.998355 28.000194 L 276.998355 253.000194 L 4.998355 253.000194 Z M 4.998355 28.000194 " transform="matrix(1,0,0,1,-2.29523,-3.4416)"/>
<path style="fill-rule:nonzero;fill:rgb(23.529053%,44.7052%,100%);fill-opacity:1;stroke-width:1;stroke-linecap:butt;stroke-linejoin:miter;stroke:rgb(0%,0%,0%);stroke-opacity:1;stroke-miterlimit:4;" d="M 10.849918 34.8166 L 271.150699 34.8166 L 271.150699 56.246287 L 10.849918 56.246287 Z M 10.849918 34.8166 " transform="matrix(1,0,0,1,-2.29523,-3.4416)"/>
<path style="fill-rule:nonzero;fill:rgb(19.999695%,19.999695%,19.999695%);fill-opacity:1;stroke-width:1;stroke-linecap:butt;stroke-linejoin:miter;stroke:rgb(0%,0%,0%);stroke-opacity:1;stroke-miterlimit:4;" d="M 10.849918 62.090037 L 271.150699 62.090037 L 271.150699 248.1291 L 10.849918 248.1291 Z M 10.849918 62.090037 " transform="matrix(1,0,0,1,-2.29523,-3.4416)"/>
<path style=" stroke:none;fill-rule:nonzero;fill:rgb(83.921814%,83.921814%,83.921814%);fill-opacity:1;" d="M 139.105469 72.109375 L 153.875 96.992188 L 179.121094 82.824219 L 179.460938 111.75 L 208.414062 112.089844 L 194.234375 137.3125 L 219.136719 152.070312 L 194.234375 166.828125 L 208.414062 192.046875 L 179.460938 192.386719 L 179.121094 221.3125 L 153.875 207.144531 L 139.105469 232.027344 L 124.332031 207.144531 L 99.089844 221.3125 L 98.75 192.386719 L 69.796875 192.046875 L 83.976562 166.828125 L 59.074219 152.070312 L 83.976562 137.3125 L 69.796875 112.089844 L 98.75 111.75 L 99.089844 82.824219 L 124.332031 96.992188 Z M 139.105469 72.109375 "/>
<g clip-path="url(#clip2)" clip-rule="nonzero">
<path style="fill:none;stroke-width:21;stroke-linecap:butt;stroke-linejoin:miter;stroke:rgb(19.999695%,19.999695%,19.999695%);stroke-opacity:1;stroke-miterlimit:4;" d="M 197.189761 98.172069 C 228.443668 129.398631 228.443668 180.023631 197.189761 211.250194 C 165.935855 242.47285 115.26398 242.47285 84.010074 211.250194 C 52.756168 180.023631 52.756168 129.398631 84.010074 98.172069 C 115.26398 66.945506 165.935855 66.945506 197.189761 98.172069 " transform="matrix(1,0,0,1,-2.29523,-3.4416)"/>
</g>
<path style="fill:none;stroke-width:3;stroke-linecap:butt;stroke-linejoin:miter;stroke:rgb(100%,100%,100%);stroke-opacity:1;stroke-miterlimit:4;" d="M 171.127261 128.804881 C 186.443668 144.105662 186.443668 168.914256 171.127261 184.215037 C 155.814761 199.515819 130.986636 199.515819 115.67023 184.215037 C 100.35773 168.914256 100.35773 144.105662 115.67023 128.804881 C 130.986636 113.5041 155.814761 113.5041 171.127261 128.804881 " transform="matrix(1,0,0,1,-2.29523,-3.4416)"/>
<path style="fill:none;stroke-width:3;stroke-linecap:butt;stroke-linejoin:miter;stroke:rgb(36.862183%,36.862183%,36.862183%);stroke-opacity:1;stroke-miterlimit:4;" d="M 167.330386 125.207225 C 182.642886 140.508006 182.642886 165.312694 167.330386 180.613475 C 152.01398 195.914256 127.185855 195.914256 111.869449 180.613475 C 96.556949 165.312694 96.556949 140.508006 111.869449 125.207225 C 127.185855 109.906444 152.01398 109.906444 167.330386 125.207225 " transform="matrix(1,0,0,1,-2.29523,-3.4416)"/>
<path style=" stroke:none;fill-rule:nonzero;fill:rgb(83.921814%,83.921814%,83.921814%);fill-opacity:1;" d="M 166.648438 123.035156 C 181.960938 138.335938 181.960938 163.140625 166.648438 178.441406 C 151.335938 193.742188 126.503906 193.742188 111.191406 178.441406 C 95.875 163.140625 95.875 138.335938 111.191406 123.035156 C 126.503906 107.734375 151.335938 107.734375 166.648438 123.035156 "/>
<path style="fill:none;stroke-width:3;stroke-linecap:butt;stroke-linejoin:miter;stroke:rgb(100%,100%,100%);stroke-opacity:1;stroke-miterlimit:4;" d="M 151.021793 146.09785 C 156.334293 151.406444 156.334293 160.015819 151.021793 165.320506 C 145.705386 170.6291 137.092105 170.6291 131.779605 165.320506 C 126.467105 160.015819 126.467105 151.406444 131.779605 146.09785 C 137.092105 140.789256 145.705386 140.789256 151.021793 146.09785 " transform="matrix(1,0,0,1,-2.29523,-3.4416)"/>
<path style="fill-rule:nonzero;fill:rgb(12.940979%,12.940979%,12.940979%);fill-opacity:1;stroke-width:1;stroke-linecap:butt;stroke-linejoin:miter;stroke:rgb(56.863403%,56.863403%,56.863403%);stroke-opacity:1;stroke-miterlimit:4;" d="M 151.021793 144.300975 C 156.334293 149.609569 156.334293 158.215037 151.021793 163.523631 C 145.705386 168.832225 137.092105 168.832225 131.779605 163.523631 C 126.467105 158.215037 126.467105 149.609569 131.779605 144.300975 C 137.092105 138.992381 145.705386 138.992381 151.021793 144.300975 " transform="matrix(1,0,0,1,-2.29523,-3.4416)"/>
</g>
</svg>
